<svg xmlns="http://www.w3.org/2000/svg" version="1.1" xmlns:xlink="http://www.w3.org/1999/xlink" xmlns:svgjs="http://svgjs.com/svgjs" width="1980" height="1080" preserveAspectRatio="none" viewBox="0 0 1980 1080"><g mask="url(&quot;#SvgjsMask2122&quot;)" fill="none"><rect width="1980" height="1080" x="0" y="0" fill="url(#SvgjsLinearGradient2123)"></rect><path d="M1268.75 816.52a95.38 95.38 0 1 0-177.95-68.73z" fill="rgba(231, 54, 53, 0.12)"></path><path d="M1178.69 404.57a102.47 102.47 0 1 0-187.86-81.9z" fill="rgba(211, 183, 20, 0.27)"></path><path d="M1320.95-89.35a92.89 92.89 0 1 0 42.04 180.96z" fill="rgba(3, 35, 123, 0.26)"></path><path d="M1545.53 301.35L1547.82 301.35L1547.82 303.64L1545.53 303.64z" stroke="rgba(231, 54, 53, 0.12)"></path><path d="M1020.41 826.05L1042.74 826.05L1042.74 890.03L1020.41 890.03z" fill="rgba(231, 54, 53, 0.12)"></path><path d="M496.63 674.32 a26.82 26.82 0 1 0 53.64 0 a26.82 26.82 0 1 0 -53.64 0z" fill="rgba(211, 183, 20, 0.27)"></path><path d="M1526.4 606.75a57.05 57.05 0 1 0 52.77 101.17z" fill="rgba(3, 35, 123, 0.26)"></path><path d="M836.29 435.78a31.35 31.35 0 1 0-40.43-47.93z" fill="rgba(3, 35, 123, 0.26)"></path><path d="M433.28 386.89a65.89 65.89 0 1 0-72.43-110.08z" stroke="rgba(162, 96, 171, 0.35)"></path><path d="M1532.03 168.97 a90.49 90.49 0 1 0 180.98 0 a90.49 90.49 0 1 0 -180.98 0z" stroke="rgba(3, 35, 123, 0.26)"></path><path d="M778.22 482.05L860.97 482.05L860.97 564.8L778.22 564.8z" stroke="rgba(162, 96, 171, 0.35)"></path><path d="M892.54 717.62L941.39 717.62L941.39 766.47L892.54 766.47z" stroke="rgba(211, 183, 20, 0.27)"></path><path d="M384.11 268.44a102.49 102.49 0 1 0 78.66-189.28z" stroke="rgba(211, 183, 20, 0.27)"></path><path d="M1105.4 168.64L1154.93 168.64L1154.93 239.96L1105.4 239.96z" fill="rgba(3, 35, 123, 0.26)"></path><path d="M773.35 848.39 a80.31 80.31 0 1 0 160.62 0 a80.31 80.31 0 1 0 -160.62 0z" fill="rgba(231, 54, 53, 0.12)"></path><path d="M232.62 370.85L317.1 370.85L317.1 455.33L232.62 455.33z" fill="rgba(211, 183, 20, 0.27)"></path><path d="M1719.25 1059.47L1725.59 1059.47L1725.59 1065.81L1719.25 1065.81z" stroke="rgba(3, 35, 123, 0.26)"></path><path d="M1051.9 1093.95a39.24 39.24 0 1 0-9.73-77.88z" stroke="rgba(3, 35, 123, 0.26)"></path><path d="M1866.65 1048.04L1973.9 1048.04L1973.9 1155.29L1866.65 1155.29z" fill="rgba(162, 96, 171, 0.35)"></path><path d="M1702.52 705.64L1750.4 705.64L1750.4 802L1702.52 802z" stroke="rgba(211, 183, 20, 0.27)"></path><path d="M422.51 109.14a22.8 22.8 0 1 0-40.15 21.62z" stroke="rgba(3, 35, 123, 0.26)"></path><path d="M1787.02 748.73a104.41 104.41 0 1 0-190.22-86.16z" stroke="rgba(162, 96, 171, 0.35)"></path><path d="M1658.46 1032.13 a42.84 42.84 0 1 0 85.68 0 a42.84 42.84 0 1 0 -85.68 0z" stroke="rgba(231, 54, 53, 0.12)"></path></g><defs><mask id="SvgjsMask2122"><rect width="1980" height="1080" fill="#ffffff"></rect></mask><linearGradient x1="88.64%" y1="120.83%" x2="11.36%" y2="-20.83%" gradientUnits="userSpaceOnUse" id="SvgjsLinearGradient2123"><stop stop-color="rgba(14, 42, 71, 1)" offset="0"></stop><stop stop-color="rgba(181, 194, 211, 1)" offset="1"></stop></linearGradient></defs></svg>