<svg xmlns="http://www.w3.org/2000/svg" version="1.1" xmlns:xlink="http://www.w3.org/1999/xlink" xmlns:svgjs="http://svgjs.com/svgjs" width="1980" height="1080" preserveAspectRatio="none" viewBox="0 0 1980 1080"><g mask="url(&quot;#SvgjsMask2418&quot;)" fill="none"><rect width="1980" height="1080" x="0" y="0" fill="url(#SvgjsLinearGradient2419)"></rect><path d="M203.04 487.16 a95.17 95.17 0 1 0 190.34 0 a95.17 95.17 0 1 0 -190.34 0z" stroke="rgba(231, 54, 53, 0.3)"></path><path d="M1945.98 914.25 a21.58 21.58 0 1 0 43.16 0 a21.58 21.58 0 1 0 -43.16 0z" fill="rgba(211, 183, 20, 0.4)"></path><path d="M1231.83 579.97a80.64 80.64 0 1 0 76.67-141.9z" fill="rgba(231, 54, 53, 0.3)"></path><path d="M1711.55 862.89L1767.52 862.89L1767.52 918.86L1711.55 918.86z" stroke="rgba(231, 54, 53, 0.3)"></path><path d="M1788.12 235.93L1821.2 235.93L1821.2 319.77L1788.12 319.77z" fill="rgba(211, 183, 20, 0.4)"></path><path d="M320.05 915.75L420.84 915.75L420.84 1016.54L320.05 1016.54z" stroke="rgba(3, 35, 123, 0.26)"></path><path d="M247.64 188.27 a47.19 47.19 0 1 0 94.38 0 a47.19 47.19 0 1 0 -94.38 0z" stroke="rgba(3, 35, 123, 0.26)"></path><path d="M517.86 1032.55L589.71 1032.55L589.71 1034.15L517.86 1034.15z" fill="rgba(162, 96, 171, 0.35)"></path><path d="M1474.93 914.02a29.33 29.33 0 1 0-29.36-50.78z" fill="rgba(231, 54, 53, 0.3)"></path><path d="M562.88 119.87 a103.63 103.63 0 1 0 207.26 0 a103.63 103.63 0 1 0 -207.26 0z" stroke="rgba(162, 96, 171, 0.35)"></path><path d="M657.66 736.76L672.53 736.76L672.53 751.63L657.66 751.63z" fill="rgba(162, 96, 171, 0.35)"></path><path d="M450.48 850.6a26.01 26.01 0 1 0-37.65 35.89z" stroke="rgba(3, 35, 123, 0.26)"></path><path d="M1469.93 250.83L1564.26 250.83L1564.26 345.16L1469.93 345.16z" stroke="rgba(231, 54, 53, 0.3)"></path><path d="M1372.86 321.03a75.16 75.16 0 1 0-77.88 128.57z" stroke="rgba(211, 183, 20, 0.4)"></path><path d="M992.87 77.27L1012.38 77.27L1012.38 107.6L992.87 107.6z" fill="rgba(3, 35, 123, 0.26)"></path><path d="M1384.9 117.01L1393.22 117.01L1393.22 125.33L1384.9 125.33z" stroke="rgba(211, 183, 20, 0.4)"></path><path d="M842.06 867.36a102.04 102.04 0 1 0-15.19-203.51z" fill="rgba(162, 96, 171, 0.35)"></path><path d="M176.18 705.39L268.58 705.39L268.58 797.79L176.18 797.79z" stroke="rgba(211, 183, 20, 0.4)"></path><path d="M1144.59 1064.94 a100.26 100.26 0 1 0 200.52 0 a100.26 100.26 0 1 0 -200.52 0z" fill="rgba(211, 183, 20, 0.4)"></path><path d="M1683.17 212.44L1752.17 212.44L1752.17 260.56L1683.17 260.56z" fill="rgba(211, 183, 20, 0.4)"></path><path d="M648.4 542.08L663.09 542.08L663.09 570.34L648.4 570.34z" fill="rgba(3, 35, 123, 0.26)"></path><path d="M1117.97 1032.21L1123.6 1032.21L1123.6 1096.28L1117.97 1096.28z" stroke="rgba(3, 35, 123, 0.26)"></path><path d="M542.35 451.16 a53.44 53.44 0 1 0 106.88 0 a53.44 53.44 0 1 0 -106.88 0z" fill="rgba(3, 35, 123, 0.26)"></path></g><defs><mask id="SvgjsMask2418"><rect width="1980" height="1080" fill="#ffffff"></rect></mask><linearGradient x1="88.64%" y1="120.83%" x2="11.36%" y2="-20.83%" gradientUnits="userSpaceOnUse" id="SvgjsLinearGradient2419"><stop stop-color="rgba(91, 164, 239, 1)" offset="0"></stop><stop stop-color="rgba(181, 194, 211, 1)" offset="1"></stop></linearGradient></defs></svg>